<svg id="visual" viewBox="0 0 900 100" width="900" height="100" xmlns="http://www.w3.org/2000/svg" xmlns:xlink="http://www.w3.org/1999/xlink" version="1.1"><rect x="0" y="0" width="900" height="100" fill="#0f0f10"></rect><path d="M0 25L9.3 27.2C18.7 29.3 37.3 33.7 56.2 36.8C75 40 94 42 112.8 40.7C131.7 39.3 150.3 34.7 169 34.7C187.7 34.7 206.3 39.3 225 39.7C243.7 40 262.3 36 281.2 32.7C300 29.3 319 26.7 337.8 28C356.7 29.3 375.3 34.7 394 36.5C412.7 38.3 431.3 36.7 450 35C468.7 33.3 487.3 31.7 506.2 31.5C525 31.3 544 32.7 562.8 32.5C581.7 32.3 600.3 30.7 619 29.2C637.7 27.7 656.3 26.3 675 28.5C693.7 30.7 712.3 36.3 731.2 35.8C750 35.3 769 28.7 787.8 28.2C806.7 27.7 825.3 33.3 844 34C862.7 34.7 881.3 30.3 890.7 28.2L900 26L900 0L890.7 0C881.3 0 862.7 0 844 0C825.3 0 806.7 0 787.8 0C769 0 750 0 731.2 0C712.3 0 693.7 0 675 0C656.3 0 637.7 0 619 0C600.3 0 581.7 0 562.8 0C544 0 525 0 506.2 0C487.3 0 468.7 0 450 0C431.3 0 412.7 0 394 0C375.3 0 356.7 0 337.8 0C319 0 300 0 281.2 0C262.3 0 243.7 0 225 0C206.3 0 187.7 0 169 0C150.3 0 131.7 0 112.8 0C94 0 75 0 56.2 0C37.3 0 18.7 0 9.3 0L0 0Z" fill="#ffffff"></path><path d="M0 19L9.3 21.8C18.7 24.7 37.3 30.3 56.2 30.8C75 31.3 94 26.7 112.8 26.2C131.7 25.7 150.3 29.3 169 30.8C187.7 32.3 206.3 31.7 225 29.8C243.7 28 262.3 25 281.2 25.7C300 26.3 319 30.7 337.8 33C356.7 35.3 375.3 35.7 394 34.3C412.7 33 431.3 30 450 27.8C468.7 25.7 487.3 24.3 506.2 26.3C525 28.3 544 33.7 562.8 36.3C581.7 39 600.3 39 619 35.8C637.7 32.7 656.3 26.3 675 24.5C693.7 22.7 712.3 25.3 731.2 27.5C750 29.7 769 31.3 787.8 33.3C806.7 35.3 825.3 37.7 844 36.3C862.7 35 881.3 30 890.7 27.5L900 25L900 0L890.7 0C881.3 0 862.7 0 844 0C825.3 0 806.7 0 787.8 0C769 0 750 0 731.2 0C712.3 0 693.7 0 675 0C656.3 0 637.7 0 619 0C600.3 0 581.7 0 562.8 0C544 0 525 0 506.2 0C487.3 0 468.7 0 450 0C431.3 0 412.7 0 394 0C375.3 0 356.7 0 337.8 0C319 0 300 0 281.2 0C262.3 0 243.7 0 225 0C206.3 0 187.7 0 169 0C150.3 0 131.7 0 112.8 0C94 0 75 0 56.2 0C37.3 0 18.7 0 9.3 0L0 0Z" fill="#d3d1cd"></path><path d="M0 19L9.3 19.3C18.7 19.7 37.3 20.3 56.2 19.8C75 19.3 94 17.7 112.8 18.3C131.7 19 150.3 22 169 23.2C187.7 24.3 206.3 23.7 225 22.5C243.7 21.3 262.3 19.7 281.2 19C300 18.3 319 18.7 337.8 18.2C356.7 17.7 375.3 16.3 394 18C412.7 19.7 431.3 24.3 450 26C468.7 27.7 487.3 26.3 506.2 24.5C525 22.7 544 20.3 562.8 18.8C581.7 17.3 600.3 16.7 619 19.3C637.7 22 656.3 28 675 30.3C693.7 32.7 712.3 31.3 731.2 28.5C750 25.7 769 21.3 787.8 21.2C806.7 21 825.3 25 844 24.8C862.7 24.7 881.3 20.3 890.7 18.2L900 16L900 0L890.7 0C881.3 0 862.7 0 844 0C825.3 0 806.7 0 787.8 0C769 0 750 0 731.2 0C712.3 0 693.7 0 675 0C656.3 0 637.7 0 619 0C600.3 0 581.7 0 562.8 0C544 0 525 0 506.2 0C487.3 0 468.7 0 450 0C431.3 0 412.7 0 394 0C375.3 0 356.7 0 337.8 0C319 0 300 0 281.2 0C262.3 0 243.7 0 225 0C206.3 0 187.7 0 169 0C150.3 0 131.7 0 112.8 0C94 0 75 0 56.2 0C37.3 0 18.7 0 9.3 0L0 0Z" fill="#a9a49c"></path><path d="M0 23L9.3 23.5C18.7 24 37.3 25 56.2 24.5C75 24 94 22 112.8 22.2C131.7 22.3 150.3 24.7 169 24.3C187.7 24 206.3 21 225 18.8C243.7 16.7 262.3 15.3 281.2 14.5C300 13.7 319 13.3 337.8 13.3C356.7 13.3 375.3 13.7 394 15.3C412.7 17 431.3 20 450 21.2C468.7 22.3 487.3 21.7 506.2 22.3C525 23 544 25 562.8 25.5C581.7 26 600.3 25 619 25.2C637.7 25.3 656.3 26.7 675 27.5C693.7 28.3 712.3 28.7 731.2 27.7C750 26.7 769 24.3 787.8 23.7C806.7 23 825.3 24 844 24.3C862.7 24.7 881.3 24.3 890.7 24.2L900 24L900 0L890.7 0C881.3 0 862.7 0 844 0C825.3 0 806.7 0 787.8 0C769 0 750 0 731.2 0C712.3 0 693.7 0 675 0C656.3 0 637.7 0 619 0C600.3 0 581.7 0 562.8 0C544 0 525 0 506.2 0C487.3 0 468.7 0 450 0C431.3 0 412.7 0 394 0C375.3 0 356.7 0 337.8 0C319 0 300 0 281.2 0C262.3 0 243.7 0 225 0C206.3 0 187.7 0 169 0C150.3 0 131.7 0 112.8 0C94 0 75 0 56.2 0C37.3 0 18.7 0 9.3 0L0 0Z" fill="#888277"></path><path d="M0 16L9.3 17C18.7 18 37.3 20 56.2 20.2C75 20.3 94 18.7 112.8 16.7C131.7 14.7 150.3 12.3 169 12.2C187.7 12 206.3 14 225 14.7C243.7 15.3 262.3 14.7 281.2 15.5C300 16.3 319 18.7 337.8 19.2C356.7 19.7 375.3 18.3 394 17.3C412.7 16.3 431.3 15.7 450 16.3C468.7 17 487.3 19 506.2 19.8C525 20.7 544 20.3 562.8 20.7C581.7 21 600.3 22 619 20.2C637.7 18.3 656.3 13.7 675 12.3C693.7 11 712.3 13 731.2 13.2C750 13.3 769 11.7 787.8 13C806.7 14.3 825.3 18.7 844 20C862.7 21.3 881.3 19.7 890.7 18.8L900 18L900 0L890.7 0C881.3 0 862.7 0 844 0C825.3 0 806.7 0 787.8 0C769 0 750 0 731.2 0C712.3 0 693.7 0 675 0C656.3 0 637.7 0 619 0C600.3 0 581.7 0 562.8 0C544 0 525 0 506.2 0C487.3 0 468.7 0 450 0C431.3 0 412.7 0 394 0C375.3 0 356.7 0 337.8 0C319 0 300 0 281.2 0C262.3 0 243.7 0 225 0C206.3 0 187.7 0 169 0C150.3 0 131.7 0 112.8 0C94 0 75 0 56.2 0C37.3 0 18.7 0 9.3 0L0 0Z" fill="#888277"></path><path d="M0 9L9.3 10.3C18.7 11.7 37.3 14.3 56.2 15.7C75 17 94 17 112.8 15.5C131.7 14 150.3 11 169 10.8C187.7 10.7 206.3 13.3 225 15.2C243.7 17 262.3 18 281.2 18.5C300 19 319 19 337.8 17C356.7 15 375.3 11 394 10.7C412.7 10.3 431.3 13.7 450 13.8C468.7 14 487.3 11 506.2 10.5C525 10 544 12 562.8 13.2C581.7 14.3 600.3 14.7 619 14.7C637.7 14.7 656.3 14.3 675 15C693.7 15.7 712.3 17.3 731.2 18C750 18.7 769 18.3 787.8 17.7C806.7 17 825.3 16 844 15.2C862.7 14.3 881.3 13.7 890.7 13.3L900 13L900 0L890.7 0C881.3 0 862.7 0 844 0C825.3 0 806.7 0 787.8 0C769 0 750 0 731.2 0C712.3 0 693.7 0 675 0C656.3 0 637.7 0 619 0C600.3 0 581.7 0 562.8 0C544 0 525 0 506.2 0C487.3 0 468.7 0 450 0C431.3 0 412.7 0 394 0C375.3 0 356.7 0 337.8 0C319 0 300 0 281.2 0C262.3 0 243.7 0 225 0C206.3 0 187.7 0 169 0C150.3 0 131.7 0 112.8 0C94 0 75 0 56.2 0C37.3 0 18.7 0 9.3 0L0 0Z" fill="#a9a49c"></path><path d="M0 6L9.3 5.8C18.7 5.7 37.3 5.3 56.2 5.5C75 5.7 94 6.3 112.8 7.3C131.7 8.3 150.3 9.7 169 10.3C187.7 11 206.3 11 225 10.3C243.7 9.7 262.3 8.3 281.2 8C300 7.7 319 8.3 337.8 8C356.7 7.7 375.3 6.3 394 6.7C412.7 7 431.3 9 450 10.2C468.7 11.3 487.3 11.7 506.2 12C525 12.3 544 12.7 562.8 11.3C581.7 10 600.3 7 619 6C637.7 5 656.3 6 675 6.3C693.7 6.7 712.3 6.3 731.2 5.7C750 5 769 4 787.8 4.8C806.7 5.7 825.3 8.3 844 9.3C862.7 10.3 881.3 9.7 890.7 9.3L900 9L900 0L890.7 0C881.3 0 862.7 0 844 0C825.3 0 806.7 0 787.8 0C769 0 750 0 731.2 0C712.3 0 693.7 0 675 0C656.3 0 637.7 0 619 0C600.3 0 581.7 0 562.8 0C544 0 525 0 506.2 0C487.3 0 468.7 0 450 0C431.3 0 412.7 0 394 0C375.3 0 356.7 0 337.8 0C319 0 300 0 281.2 0C262.3 0 243.7 0 225 0C206.3 0 187.7 0 169 0C150.3 0 131.7 0 112.8 0C94 0 75 0 56.2 0C37.3 0 18.7 0 9.3 0L0 0Z" fill="#d3d1cd"></path><path d="M0 2L9.3 1.8C18.7 1.7 37.3 1.3 56.2 1.2C75 1 94 1 112.8 2C131.7 3 150.3 5 169 6.2C187.7 7.3 206.3 7.7 225 7.7C243.7 7.7 262.3 7.3 281.2 7.5C300 7.7 319 8.3 337.8 8C356.7 7.7 375.3 6.3 394 5.3C412.7 4.3 431.3 3.7 450 4C468.7 4.3 487.3 5.7 506.2 6.2C525 6.7 544 6.3 562.8 6.3C581.7 6.3 600.3 6.7 619 7C637.7 7.3 656.3 7.7 675 7.8C693.7 8 712.3 8 731.2 7.7C750 7.3 769 6.7 787.8 6.2C806.7 5.7 825.3 5.3 844 5.5C862.7 5.7 881.3 6.3 890.7 6.7L900 7L900 0L890.7 0C881.3 0 862.7 0 844 0C825.3 0 806.7 0 787.8 0C769 0 750 0 731.2 0C712.3 0 693.7 0 675 0C656.3 0 637.7 0 619 0C600.3 0 581.7 0 562.8 0C544 0 525 0 506.2 0C487.3 0 468.7 0 450 0C431.3 0 412.7 0 394 0C375.3 0 356.7 0 337.8 0C319 0 300 0 281.2 0C262.3 0 243.7 0 225 0C206.3 0 187.7 0 169 0C150.3 0 131.7 0 112.8 0C94 0 75 0 56.2 0C37.3 0 18.7 0 9.3 0L0 0Z" fill="#ffffff"></path></svg>