<svg id="visual" viewBox="0 0 900 100" width="900" height="100" xmlns="http://www.w3.org/2000/svg" xmlns:xlink="http://www.w3.org/1999/xlink" version="1.1"><rect x="0" y="0" width="900" height="100" fill="#FFFFFF"></rect><path d="M0 39L7.5 37C15 35 30 31 45 29.8C60 28.7 75 30.3 90 32.7C105 35 120 38 135 37.7C150 37.3 165 33.7 180 31.5C195 29.3 210 28.7 225 28.2C240 27.7 255 27.3 270 29.7C285 32 300 37 315 37.2C330 37.3 345 32.7 360 32C375 31.3 390 34.7 405 34.5C420 34.3 435 30.7 450 32C465 33.3 480 39.7 495 41.5C510 43.3 525 40.7 540 37.3C555 34 570 30 585 31C600 32 615 38 630 40.3C645 42.7 660 41.3 675 41.3C690 41.3 705 42.7 720 41.7C735 40.7 750 37.3 765 36.5C780 35.7 795 37.3 810 37.7C825 38 840 37 855 36.2C870 35.3 885 34.7 892.5 34.3L900 34L900 0L892.5 0C885 0 870 0 855 0C840 0 825 0 810 0C795 0 780 0 765 0C750 0 735 0 720 0C705 0 690 0 675 0C660 0 645 0 630 0C615 0 600 0 585 0C570 0 555 0 540 0C525 0 510 0 495 0C480 0 465 0 450 0C435 0 420 0 405 0C390 0 375 0 360 0C345 0 330 0 315 0C300 0 285 0 270 0C255 0 240 0 225 0C210 0 195 0 180 0C165 0 150 0 135 0C120 0 105 0 90 0C75 0 60 0 45 0C30 0 15 0 7.5 0L0 0Z" fill="#0f0f10"></path><path d="M0 36L7.5 32.8C15 29.7 30 23.3 45 21.8C60 20.3 75 23.7 90 24.8C105 26 120 25 135 25.3C150 25.7 165 27.3 180 29.7C195 32 210 35 225 33.8C240 32.7 255 27.3 270 23.8C285 20.3 300 18.7 315 21C330 23.3 345 29.7 360 32.2C375 34.7 390 33.3 405 33.5C420 33.7 435 35.3 450 35.5C465 35.7 480 34.3 495 34.5C510 34.7 525 36.3 540 37.2C555 38 570 38 585 35.5C600 33 615 28 630 27.3C645 26.7 660 30.3 675 31.7C690 33 705 32 720 30.8C735 29.7 750 28.3 765 28.8C780 29.3 795 31.7 810 33C825 34.3 840 34.7 855 32.2C870 29.7 885 24.3 892.5 21.7L900 19L900 0L892.5 0C885 0 870 0 855 0C840 0 825 0 810 0C795 0 780 0 765 0C750 0 735 0 720 0C705 0 690 0 675 0C660 0 645 0 630 0C615 0 600 0 585 0C570 0 555 0 540 0C525 0 510 0 495 0C480 0 465 0 450 0C435 0 420 0 405 0C390 0 375 0 360 0C345 0 330 0 315 0C300 0 285 0 270 0C255 0 240 0 225 0C210 0 195 0 180 0C165 0 150 0 135 0C120 0 105 0 90 0C75 0 60 0 45 0C30 0 15 0 7.5 0L0 0Z" fill="#4c4445"></path><path d="M0 23L7.5 22.2C15 21.3 30 19.7 45 18.2C60 16.7 75 15.3 90 17.3C105 19.3 120 24.7 135 25.2C150 25.7 165 21.3 180 21.2C195 21 210 25 225 26C240 27 255 25 270 22.7C285 20.3 300 17.7 315 17.2C330 16.7 345 18.3 360 20C375 21.7 390 23.3 405 22.7C420 22 435 19 450 18C465 17 480 18 495 17.7C510 17.3 525 15.7 540 14.7C555 13.7 570 13.3 585 16.2C600 19 615 25 630 27.5C645 30 660 29 675 27.7C690 26.3 705 24.7 720 24C735 23.3 750 23.7 765 24.5C780 25.3 795 26.7 810 26.2C825 25.7 840 23.3 855 22.3C870 21.3 885 21.7 892.5 21.8L900 22L900 0L892.5 0C885 0 870 0 855 0C840 0 825 0 810 0C795 0 780 0 765 0C750 0 735 0 720 0C705 0 690 0 675 0C660 0 645 0 630 0C615 0 600 0 585 0C570 0 555 0 540 0C525 0 510 0 495 0C480 0 465 0 450 0C435 0 420 0 405 0C390 0 375 0 360 0C345 0 330 0 315 0C300 0 285 0 270 0C255 0 240 0 225 0C210 0 195 0 180 0C165 0 150 0 135 0C120 0 105 0 90 0C75 0 60 0 45 0C30 0 15 0 7.5 0L0 0Z" fill="#888277"></path><path d="M0 23L7.5 21.2C15 19.3 30 15.7 45 13.3C60 11 75 10 90 11.3C105 12.7 120 16.3 135 18.5C150 20.7 165 21.3 180 21.8C195 22.3 210 22.7 225 21.8C240 21 255 19 270 17C285 15 300 13 315 12.5C330 12 345 13 360 15C375 17 390 20 405 19.3C420 18.7 435 14.3 450 13.7C465 13 480 16 495 17.2C510 18.3 525 17.7 540 16.2C555 14.7 570 12.3 585 12.2C600 12 615 14 630 15C645 16 660 16 675 16.5C690 17 705 18 720 17.7C735 17.3 750 15.7 765 14C780 12.3 795 10.7 810 11.8C825 13 840 17 855 17.5C870 18 885 15 892.5 13.5L900 12L900 0L892.5 0C885 0 870 0 855 0C840 0 825 0 810 0C795 0 780 0 765 0C750 0 735 0 720 0C705 0 690 0 675 0C660 0 645 0 630 0C615 0 600 0 585 0C570 0 555 0 540 0C525 0 510 0 495 0C480 0 465 0 450 0C435 0 420 0 405 0C390 0 375 0 360 0C345 0 330 0 315 0C300 0 285 0 270 0C255 0 240 0 225 0C210 0 195 0 180 0C165 0 150 0 135 0C120 0 105 0 90 0C75 0 60 0 45 0C30 0 15 0 7.5 0L0 0Z" fill="#888277"></path><path d="M0 6L7.5 6.2C15 6.3 30 6.7 45 6.8C60 7 75 7 90 7C105 7 120 7 135 7.7C150 8.3 165 9.7 180 10.7C195 11.7 210 12.3 225 12.5C240 12.7 255 12.3 270 13C285 13.7 300 15.3 315 15.8C330 16.3 345 15.7 360 15.8C375 16 390 17 405 17C420 17 435 16 450 15.5C465 15 480 15 495 15C510 15 525 15 540 15C555 15 570 15 585 14.7C600 14.3 615 13.7 630 12.2C645 10.7 660 8.3 675 9.2C690 10 705 14 720 13.8C735 13.7 750 9.3 765 9.3C780 9.3 795 13.7 810 15.8C825 18 840 18 855 16.8C870 15.7 885 13.3 892.5 12.2L900 11L900 0L892.5 0C885 0 870 0 855 0C840 0 825 0 810 0C795 0 780 0 765 0C750 0 735 0 720 0C705 0 690 0 675 0C660 0 645 0 630 0C615 0 600 0 585 0C570 0 555 0 540 0C525 0 510 0 495 0C480 0 465 0 450 0C435 0 420 0 405 0C390 0 375 0 360 0C345 0 330 0 315 0C300 0 285 0 270 0C255 0 240 0 225 0C210 0 195 0 180 0C165 0 150 0 135 0C120 0 105 0 90 0C75 0 60 0 45 0C30 0 15 0 7.5 0L0 0Z" fill="#4c4445"></path><path d="M0 1L7.5 1C15 1 30 1 45 1.3C60 1.7 75 2.3 90 2.8C105 3.3 120 3.7 135 4.2C150 4.7 165 5.3 180 4.8C195 4.3 210 2.7 225 3.5C240 4.3 255 7.7 270 8.3C285 9 300 7 315 7C330 7 345 9 360 9.8C375 10.7 390 10.3 405 9.5C420 8.7 435 7.3 450 7C465 6.7 480 7.3 495 7.3C510 7.3 525 6.7 540 7C555 7.3 570 8.7 585 8.5C600 8.3 615 6.7 630 5.2C645 3.7 660 2.3 675 3C690 3.7 705 6.3 720 7C735 7.7 750 6.3 765 6.7C780 7 795 9 810 10C825 11 840 11 855 11C870 11 885 11 892.5 11L900 11L900 0L892.5 0C885 0 870 0 855 0C840 0 825 0 810 0C795 0 780 0 765 0C750 0 735 0 720 0C705 0 690 0 675 0C660 0 645 0 630 0C615 0 600 0 585 0C570 0 555 0 540 0C525 0 510 0 495 0C480 0 465 0 450 0C435 0 420 0 405 0C390 0 375 0 360 0C345 0 330 0 315 0C300 0 285 0 270 0C255 0 240 0 225 0C210 0 195 0 180 0C165 0 150 0 135 0C120 0 105 0 90 0C75 0 60 0 45 0C30 0 15 0 7.5 0L0 0Z" fill="#0f0f10"></path></svg>