<svg id="visual" viewBox="0 0 900 300" width="900" height="300" xmlns="http://www.w3.org/2000/svg" xmlns:xlink="http://www.w3.org/1999/xlink" version="1.1"><rect x="0" y="0" width="900" height="300" fill="#ff0066"></rect><path d="M0 95L9.3 97.5C18.7 100 37.3 105 56.2 107.5C75 110 94 110 112.8 108.2C131.7 106.3 150.3 102.7 169 106.8C187.7 111 206.3 123 225 121.8C243.7 120.7 262.3 106.3 281.2 96.8C300 87.3 319 82.7 337.8 85.3C356.7 88 375.3 98 394 101C412.7 104 431.3 100 450 105.2C468.7 110.3 487.3 124.7 506.2 130.5C525 136.3 544 133.7 562.8 122C581.7 110.3 600.3 89.7 619 89.5C637.7 89.3 656.3 109.7 675 113.2C693.7 116.7 712.3 103.3 731.2 94.2C750 85 769 80 787.8 78.2C806.7 76.3 825.3 77.7 844 77C862.7 76.3 881.3 73.7 890.7 72.3L900 71L900 0L890.7 0C881.3 0 862.7 0 844 0C825.3 0 806.7 0 787.8 0C769 0 750 0 731.2 0C712.3 0 693.7 0 675 0C656.3 0 637.7 0 619 0C600.3 0 581.7 0 562.8 0C544 0 525 0 506.2 0C487.3 0 468.7 0 450 0C431.3 0 412.7 0 394 0C375.3 0 356.7 0 337.8 0C319 0 300 0 281.2 0C262.3 0 243.7 0 225 0C206.3 0 187.7 0 169 0C150.3 0 131.7 0 112.8 0C94 0 75 0 56.2 0C37.3 0 18.7 0 9.3 0L0 0Z" fill="#001122"></path><path d="M0 70L9.3 70.2C18.7 70.3 37.3 70.7 56.2 79C75 87.3 94 103.7 112.8 109.3C131.7 115 150.3 110 169 105.8C187.7 101.7 206.3 98.3 225 99.3C243.7 100.3 262.3 105.7 281.2 100.3C300 95 319 79 337.8 76C356.7 73 375.3 83 394 82.3C412.7 81.7 431.3 70.3 450 71.8C468.7 73.3 487.3 87.7 506.2 94.5C525 101.3 544 100.7 562.8 98.7C581.7 96.7 600.3 93.3 619 88.8C637.7 84.3 656.3 78.7 675 77.5C693.7 76.3 712.3 79.7 731.2 86.2C750 92.7 769 102.3 787.8 102C806.7 101.7 825.3 91.3 844 87.5C862.7 83.7 881.3 86.3 890.7 87.7L900 89L900 0L890.7 0C881.3 0 862.7 0 844 0C825.3 0 806.7 0 787.8 0C769 0 750 0 731.2 0C712.3 0 693.7 0 675 0C656.3 0 637.7 0 619 0C600.3 0 581.7 0 562.8 0C544 0 525 0 506.2 0C487.3 0 468.7 0 450 0C431.3 0 412.7 0 394 0C375.3 0 356.7 0 337.8 0C319 0 300 0 281.2 0C262.3 0 243.7 0 225 0C206.3 0 187.7 0 169 0C150.3 0 131.7 0 112.8 0C94 0 75 0 56.2 0C37.3 0 18.7 0 9.3 0L0 0Z" fill="#592b61"></path><path d="M0 106L9.3 99.3C18.7 92.7 37.3 79.3 56.2 72.2C75 65 94 64 112.8 62.3C131.7 60.7 150.3 58.3 169 56.5C187.7 54.7 206.3 53.3 225 52C243.7 50.7 262.3 49.3 281.2 55.8C300 62.3 319 76.7 337.8 85.2C356.7 93.7 375.3 96.3 394 94.2C412.7 92 431.3 85 450 85.8C468.7 86.7 487.3 95.3 506.2 97C525 98.7 544 93.3 562.8 92.3C581.7 91.3 600.3 94.7 619 88.8C637.7 83 656.3 68 675 65.7C693.7 63.3 712.3 73.7 731.2 81C750 88.3 769 92.7 787.8 95C806.7 97.3 825.3 97.7 844 90.8C862.7 84 881.3 70 890.7 63L900 56L900 0L890.7 0C881.3 0 862.7 0 844 0C825.3 0 806.7 0 787.8 0C769 0 750 0 731.2 0C712.3 0 693.7 0 675 0C656.3 0 637.7 0 619 0C600.3 0 581.7 0 562.8 0C544 0 525 0 506.2 0C487.3 0 468.7 0 450 0C431.3 0 412.7 0 394 0C375.3 0 356.7 0 337.8 0C319 0 300 0 281.2 0C262.3 0 243.7 0 225 0C206.3 0 187.7 0 169 0C150.3 0 131.7 0 112.8 0C94 0 75 0 56.2 0C37.3 0 18.7 0 9.3 0L0 0Z" fill="#cc3557"></path><path d="M0 44L9.3 45.8C18.7 47.7 37.3 51.3 56.2 53C75 54.7 94 54.3 112.8 59.3C131.7 64.3 150.3 74.7 169 74.2C187.7 73.7 206.3 62.3 225 55.3C243.7 48.3 262.3 45.7 281.2 44C300 42.3 319 41.7 337.8 45.2C356.7 48.7 375.3 56.3 394 61.2C412.7 66 431.3 68 450 69.7C468.7 71.3 487.3 72.7 506.2 75.2C525 77.7 544 81.3 562.8 77.5C581.7 73.7 600.3 62.3 619 61.2C637.7 60 656.3 69 675 69.7C693.7 70.3 712.3 62.7 731.2 63.8C750 65 769 75 787.8 77.5C806.7 80 825.3 75 844 71.8C862.7 68.7 881.3 67.3 890.7 66.7L900 66L900 0L890.7 0C881.3 0 862.7 0 844 0C825.3 0 806.7 0 787.8 0C769 0 750 0 731.2 0C712.3 0 693.7 0 675 0C656.3 0 637.7 0 619 0C600.3 0 581.7 0 562.8 0C544 0 525 0 506.2 0C487.3 0 468.7 0 450 0C431.3 0 412.7 0 394 0C375.3 0 356.7 0 337.8 0C319 0 300 0 281.2 0C262.3 0 243.7 0 225 0C206.3 0 187.7 0 169 0C150.3 0 131.7 0 112.8 0C94 0 75 0 56.2 0C37.3 0 18.7 0 9.3 0L0 0Z" fill="#f7770f"></path><path d="M0 41L9.3 39.3C18.7 37.7 37.3 34.3 56.2 34.7C75 35 94 39 112.8 38.8C131.7 38.7 150.3 34.3 169 35.2C187.7 36 206.3 42 225 46.2C243.7 50.3 262.3 52.7 281.2 56.5C300 60.3 319 65.7 337.8 64.7C356.7 63.7 375.3 56.3 394 55.7C412.7 55 431.3 61 450 58.8C468.7 56.7 487.3 46.3 506.2 46.5C525 46.7 544 57.3 562.8 63.5C581.7 69.7 600.3 71.3 619 65.3C637.7 59.3 656.3 45.7 675 40.3C693.7 35 712.3 38 731.2 43.2C750 48.3 769 55.7 787.8 57.7C806.7 59.7 825.3 56.3 844 57.3C862.7 58.3 881.3 63.7 890.7 66.3L900 69L900 0L890.7 0C881.3 0 862.7 0 844 0C825.3 0 806.7 0 787.8 0C769 0 750 0 731.2 0C712.3 0 693.7 0 675 0C656.3 0 637.7 0 619 0C600.3 0 581.7 0 562.8 0C544 0 525 0 506.2 0C487.3 0 468.7 0 450 0C431.3 0 412.7 0 394 0C375.3 0 356.7 0 337.8 0C319 0 300 0 281.2 0C262.3 0 243.7 0 225 0C206.3 0 187.7 0 169 0C150.3 0 131.7 0 112.8 0C94 0 75 0 56.2 0C37.3 0 18.7 0 9.3 0L0 0Z" fill="#f7770f"></path><path d="M0 49L9.3 46.5C18.7 44 37.3 39 56.2 39.3C75 39.7 94 45.3 112.8 47.5C131.7 49.7 150.3 48.3 169 45C187.7 41.7 206.3 36.3 225 37.8C243.7 39.3 262.3 47.7 281.2 48.3C300 49 319 42 337.8 42.3C356.7 42.7 375.3 50.3 394 50.7C412.7 51 431.3 44 450 39.2C468.7 34.3 487.3 31.7 506.2 34.7C525 37.7 544 46.3 562.8 49.8C581.7 53.3 600.3 51.7 619 49.7C637.7 47.7 656.3 45.3 675 43.5C693.7 41.7 712.3 40.3 731.2 37.2C750 34 769 29 787.8 28.3C806.7 27.7 825.3 31.3 844 32.2C862.7 33 881.3 31 890.7 30L900 29L900 0L890.7 0C881.3 0 862.7 0 844 0C825.3 0 806.7 0 787.8 0C769 0 750 0 731.2 0C712.3 0 693.7 0 675 0C656.3 0 637.7 0 619 0C600.3 0 581.7 0 562.8 0C544 0 525 0 506.2 0C487.3 0 468.7 0 450 0C431.3 0 412.7 0 394 0C375.3 0 356.7 0 337.8 0C319 0 300 0 281.2 0C262.3 0 243.7 0 225 0C206.3 0 187.7 0 169 0C150.3 0 131.7 0 112.8 0C94 0 75 0 56.2 0C37.3 0 18.7 0 9.3 0L0 0Z" fill="#cc3557"></path><path d="M0 35L9.3 36.3C18.7 37.7 37.3 40.3 56.2 37.3C75 34.3 94 25.7 112.8 23.2C131.7 20.7 150.3 24.3 169 27.7C187.7 31 206.3 34 225 36C243.7 38 262.3 39 281.2 37.5C300 36 319 32 337.8 29.8C356.7 27.7 375.3 27.3 394 26C412.7 24.7 431.3 22.3 450 21.3C468.7 20.3 487.3 20.7 506.2 21.7C525 22.7 544 24.3 562.8 28.2C581.7 32 600.3 38 619 40.2C637.7 42.3 656.3 40.7 675 40.7C693.7 40.7 712.3 42.3 731.2 42.8C750 43.3 769 42.7 787.8 42.3C806.7 42 825.3 42 844 38.7C862.7 35.3 881.3 28.7 890.7 25.3L900 22L900 0L890.7 0C881.3 0 862.7 0 844 0C825.3 0 806.7 0 787.8 0C769 0 750 0 731.2 0C712.3 0 693.7 0 675 0C656.3 0 637.7 0 619 0C600.3 0 581.7 0 562.8 0C544 0 525 0 506.2 0C487.3 0 468.7 0 450 0C431.3 0 412.7 0 394 0C375.3 0 356.7 0 337.8 0C319 0 300 0 281.2 0C262.3 0 243.7 0 225 0C206.3 0 187.7 0 169 0C150.3 0 131.7 0 112.8 0C94 0 75 0 56.2 0C37.3 0 18.7 0 9.3 0L0 0Z" fill="#592b61"></path><path d="M0 5L9.3 8.7C18.7 12.3 37.3 19.7 56.2 19.3C75 19 94 11 112.8 10.5C131.7 10 150.3 17 169 19.7C187.7 22.3 206.3 20.7 225 19.8C243.7 19 262.3 19 281.2 18.8C300 18.7 319 18.3 337.8 15.8C356.7 13.3 375.3 8.7 394 8.7C412.7 8.7 431.3 13.3 450 14.2C468.7 15 487.3 12 506.2 13.3C525 14.7 544 20.3 562.8 21.5C581.7 22.7 600.3 19.3 619 15.7C637.7 12 656.3 8 675 7.2C693.7 6.3 712.3 8.7 731.2 12.3C750 16 769 21 787.8 23.2C806.7 25.3 825.3 24.7 844 22.3C862.7 20 881.3 16 890.7 14L900 12L900 0L890.7 0C881.3 0 862.7 0 844 0C825.3 0 806.7 0 787.8 0C769 0 750 0 731.2 0C712.3 0 693.7 0 675 0C656.3 0 637.7 0 619 0C600.3 0 581.7 0 562.8 0C544 0 525 0 506.2 0C487.3 0 468.7 0 450 0C431.3 0 412.7 0 394 0C375.3 0 356.7 0 337.8 0C319 0 300 0 281.2 0C262.3 0 243.7 0 225 0C206.3 0 187.7 0 169 0C150.3 0 131.7 0 112.8 0C94 0 75 0 56.2 0C37.3 0 18.7 0 9.3 0L0 0Z" fill="#001122"></path></svg>