<svg id="visual" viewBox="0 0 900 300" width="900" height="300" xmlns="http://www.w3.org/2000/svg" xmlns:xlink="http://www.w3.org/1999/xlink" version="1.1"><rect x="0" y="0" width="900" height="300" fill="#0f0f10"></rect><path d="M0 71L16.7 72.2C33.3 73.3 66.7 75.7 100 73.7C133.3 71.7 166.7 65.3 200 63.2C233.3 61 266.7 63 300 63.3C333.3 63.7 366.7 62.3 400 65C433.3 67.7 466.7 74.3 500 73C533.3 71.7 566.7 62.3 600 57.7C633.3 53 666.7 53 700 62.7C733.3 72.3 766.7 91.7 800 93.2C833.3 94.7 866.7 78.3 883.3 70.2L900 62L900 0L883.3 0C866.7 0 833.3 0 800 0C766.7 0 733.3 0 700 0C666.7 0 633.3 0 600 0C566.7 0 533.3 0 500 0C466.7 0 433.3 0 400 0C366.7 0 333.3 0 300 0C266.7 0 233.3 0 200 0C166.7 0 133.3 0 100 0C66.7 0 33.3 0 16.7 0L0 0Z" fill="#ff0066"></path><path d="M0 48L16.7 55.3C33.3 62.7 66.7 77.3 100 89.2C133.3 101 166.7 110 200 112.3C233.3 114.7 266.7 110.3 300 97.7C333.3 85 366.7 64 400 53.7C433.3 43.3 466.7 43.7 500 47.8C533.3 52 566.7 60 600 67.7C633.3 75.3 666.7 82.7 700 85.2C733.3 87.7 766.7 85.3 800 86.5C833.3 87.7 866.7 92.3 883.3 94.7L900 97L900 0L883.3 0C866.7 0 833.3 0 800 0C766.7 0 733.3 0 700 0C666.7 0 633.3 0 600 0C566.7 0 533.3 0 500 0C466.7 0 433.3 0 400 0C366.7 0 333.3 0 300 0C266.7 0 233.3 0 200 0C166.7 0 133.3 0 100 0C66.7 0 33.3 0 16.7 0L0 0Z" fill="#fb6922"></path><path d="M0 41L16.7 43C33.3 45 66.7 49 100 44.8C133.3 40.7 166.7 28.3 200 30.5C233.3 32.7 266.7 49.3 300 51C333.3 52.7 366.7 39.3 400 39.3C433.3 39.3 466.7 52.7 500 62C533.3 71.3 566.7 76.7 600 78.2C633.3 79.7 666.7 77.3 700 75.2C733.3 73 766.7 71 800 60.8C833.3 50.7 866.7 32.3 883.3 23.2L900 14L900 0L883.3 0C866.7 0 833.3 0 800 0C766.7 0 733.3 0 700 0C666.7 0 633.3 0 600 0C566.7 0 533.3 0 500 0C466.7 0 433.3 0 400 0C366.7 0 333.3 0 300 0C266.7 0 233.3 0 200 0C166.7 0 133.3 0 100 0C66.7 0 33.3 0 16.7 0L0 0Z" fill="#fb6922"></path><path d="M0 24L16.7 24.3C33.3 24.7 66.7 25.3 100 29.8C133.3 34.3 166.7 42.7 200 43.2C233.3 43.7 266.7 36.3 300 34.3C333.3 32.3 366.7 35.7 400 34.8C433.3 34 466.7 29 500 24.3C533.3 19.7 566.7 15.3 600 17.8C633.3 20.3 666.7 29.7 700 34.3C733.3 39 766.7 39 800 33C833.3 27 866.7 15 883.3 9L900 3L900 0L883.3 0C866.7 0 833.3 0 800 0C766.7 0 733.3 0 700 0C666.7 0 633.3 0 600 0C566.7 0 533.3 0 500 0C466.7 0 433.3 0 400 0C366.7 0 333.3 0 300 0C266.7 0 233.3 0 200 0C166.7 0 133.3 0 100 0C66.7 0 33.3 0 16.7 0L0 0Z" fill="#ff0066"></path></svg>