<svg id="visual" viewBox="0 0 900 100" width="900" height="100" xmlns="http://www.w3.org/2000/svg" xmlns:xlink="http://www.w3.org/1999/xlink" version="1.1"><rect x="0" y="0" width="900" height="100" fill="#af9a89"></rect><path d="M0 78L15 78.7C30 79.3 60 80.7 90 80.3C120 80 150 78 180 74.7C210 71.3 240 66.7 270 67.7C300 68.7 330 75.3 360 78.7C390 82 420 82 450 81.3C480 80.7 510 79.3 540 76.2C570 73 600 68 630 65.7C660 63.3 690 63.7 720 64.8C750 66 780 68 810 70.8C840 73.7 870 77.3 885 79.2L900 81L900 101L885 101C870 101 840 101 810 101C780 101 750 101 720 101C690 101 660 101 630 101C600 101 570 101 540 101C510 101 480 101 450 101C420 101 390 101 360 101C330 101 300 101 270 101C240 101 210 101 180 101C150 101 120 101 90 101C60 101 30 101 15 101L0 101Z" fill="#0f0f10" stroke-linecap="round" stroke-linejoin="miter"></path></svg>